<svg version="1.2" xmlns="http://www.w3.org/2000/svg" viewBox="0 0 1920 1080" width="1920" height="1080">
	<title>FakeBustersf11-ai</title>
	<style>
		.s0 { fill: #000000 } 
		.s1 { fill: #745ab6 } 
		.s2 { fill: #000000;stroke: #ffffff;stroke-miterlimit:10;stroke-width: 5.2 } 
		.s3 { fill: #000000;stroke: #ffffff;stroke-miterlimit:10;stroke-width: 5.8 } 
		.s4 { fill: #000000;stroke: #ffffff;stroke-linecap: round;stroke-linejoin: round;stroke-width: 5.8 } 
	</style>
	<g id="Layer 1">
		<g id="&lt;Group&gt;">
			<path id="&lt;Path&gt;" class="s0" d="m564.2 575.2c0 59.9-48.5 108.4-108.3 108.4-59.8 0-108.3-48.5-108.3-108.4 0-59.8 48.5-108.3 108.3-108.3 59.8 0 108.3 48.5 108.3 108.3z"/>
			<path id="&lt;Path&gt;" class="s1" d="m361.7 555.8c3.4-25.6 16.6-48.3 37.2-64 17-13 37.4-19.8 58.4-19.8q6.5 0 13.1 0.9c25.6 3.4 48.3 16.6 64 37.2q5.1 6.7 9 14l32.1-16.2c-3.5-6.9-7.7-13.4-12.4-19.7-21.5-28.2-52.7-46.3-87.9-51.1-35.1-4.7-70 4.5-98.2 26-28.2 21.5-46.3 52.7-51.1 87.9-3.6 26.6 0.9 53.1 12.6 76.7l32.2-16.3c-8.4-17.1-11.6-36.3-9-55.6z"/>
			<g id="&lt;Group&gt;">
				<path id="&lt;Path&gt;" class="s2" d="m516.2 684.5c1.9-8.8 6.7-16.7 11.7-24.2 4.3-6.6 8.2-13.4 11.9-20.2v-6.7l2 3.1q1-2 2.1-4c5.6-10.5 12.7-19.8 18.6-30q1.8-3.1 3.6-6.2l-23.2-41.5c-8.1-14.6-20.5-26.3-35.4-33.6l-12.7-6.2q0.3-0.2 0.6-0.4c17.4-13.1 23.2-34.2 24.6-40.1 1.7-0.5 6-0.2 10.2-7.9 3.1-5.9 2.6-11.4 2.4-13.2-1-8.6-4.2-13.9-5.9-15.4 0.8-4.4 3.3-21.6-7.9-37.9-13-19-34.2-21.3-37.1-21.5-1.5-0.2-5.7-0.3-9.6 2.4-1.7 1.1-2.9 2.5-3.6 3.6-2.9-1.2-16.1-6-31.2 0-14.4 5.7-20.8 17.4-22.8 21.5-7.1 15-3.3 28.7-2.4 31.8h-0.1q0 0.1 0 0.1c-1.7 1.6-4.9 6.8-5.9 15.5-0.2 1.8-0.7 7.3 2.4 13.2 4.1 7.7 7.9 6.1 9.6 6.6 1.4 5.7 7.4 26.9 23.6 40.1l-80.7 37.5 9.7-27.4c1-2 2.3-3.8 4.1-5.2 4.1-3.3 13.7-6.2 13.7-12.9-0.1-2-1.4-4.1-3-5.3-0.7-0.5-2.4-1.7-7.7-1.3-2.7 0.2-6.8 0.8-11.6 2.9q-7.2-1.3-14.3-2.6 11.8-11 23.7-22.1c-0.4-0.7-1.2-1.9-2.7-2.8-2.3-1.5-5.4-1.7-7.9-0.5-2 0.9-3 2.4-3.5 3.2-1.2 0.1-2.8 0.4-4.5 1.2-3.3 1.6-5 4.2-5.7 5.3-1 0.4-2.6 1.1-4 2.5-2.7 2.6-3.3 5.8-3.5 6.9-1 0.7-2.1 1.8-2.9 3.3-2.8 5.4 1.2 11.5 1.4 11.9q1.5-1.4 3-2.8c-0.9 1.7-2.2 3.2-2.7 5.4-0.5 2.5 0.2 4.9 1.2 6.9l-37.3 70.3c-3.2 7.9 2.6 16.6 11.1 16.6 1.8 0 3.6-0.4 5.2-1.2l71.9-27.3v108.6z"/>
				<g id="&lt;Group&gt;">
					<path id="&lt;Path&gt;" class="s3" d="m408.3 456.7c-2.6-2.9-7-3.2-9.9-0.6l-13 11.6q-0.9 0.8-1.4 1.8c-2 0-4.1 0.6-5.8 1.9l-34.6 27.3c-4.1 3.3-4.6 9.3-1.1 13.2l3.5 4c3.5 3.8 9.5 4 13.2 0.3l31-31.3c1.5-1.5 2.4-3.5 2.6-5.5q1.1-0.5 2-1.3l12.9-11.6c2.9-2.5 3.2-7 0.6-9.8z"/>
					<path id="&lt;Path&gt;" class="s3" d="m397.8 417.6c-15 13.4-16.3 36.3-2.9 51.3 13.3 14.9 36.3 16.2 51.3 2.9 14.9-13.4 16.2-36.3 2.9-51.3-13.4-15-36.4-16.3-51.3-2.9z"/>
					<path id="&lt;Path&gt;" class="s4" d="m447.9 434.9c0.7 2.6 2.4 9.9-0.6 18.2-3.8 10.7-12.4 15.5-14.5 16.6"/>
				</g>
			</g>
			<path id="&lt;Path&gt;" class="s1" d="m543.4 524.1c9.1 17.6 12.6 37.5 9.9 57.5-3.4 25.6-16.6 48.3-37.2 64-20.5 15.7-45.9 22.4-71.5 18.9-25.6-3.4-48.3-16.6-64-37.2-3.8-5-7.1-10.3-9.9-15.9l-32.2 16.3c3.8 7.5 8.2 14.7 13.4 21.5 21.5 28.2 52.7 46.3 87.9 51.1q9 1.2 18 1.2c28.9 0 56.8-9.4 80.2-27.2 28.2-21.5 46.3-52.7 51.1-87.9l-17.9-2.4 17.9 2.4c3.7-27.3-1.1-54.5-13.6-78.5z"/>
			<g id="&lt;Group&gt;">
				<path id="&lt;Path&gt;" class="s1" d="m357 639.6l-16.2-32.2 216.5-109.1 16.2 32.2z"/>
			</g>
			<g id="&lt;Group&gt;">
				<path id="&lt;Compound Path&gt;" class="s0" d="m641.6 551.5h41.2v22h-41.2v46.5h-24.2v-115.9h74.8v22h-50.6z"/>
				<path id="&lt;Compound Path&gt;" fill-rule="evenodd" class="s0" d="m793.7 620h-21.8v-10.2h-0.4c-4.7 8.5-15.1 13.2-26.2 13.2-27.6 0-48.2-19.5-48.2-46.5 0-26.9 22.1-46.5 48.2-46.5 27.6 0 48.4 19.3 48.4 46.9zm-48.1-69.2c-13.6 0-25.3 12.1-25.3 25.7 0 13.7 11.7 25.8 25.3 25.8 13.7 0 25.4-12.1 25.4-25.8 0-13.6-11.7-25.7-25.4-25.7z"/>
				<path id="&lt;Compound Path&gt;" class="s0" d="m872.7 620l-35.2-43.3v43.3h-23.2v-115.9h23.2v64.1l28.3-35.1h29.3l-32.9 39.3 39.7 47.6z"/>
				<path id="&lt;Compound Path&gt;" fill-rule="evenodd" class="s0" d="m926.6 584.9c3.4 10 12.9 17.4 23.7 17.4 7.6 0 14.8-3.8 19.4-9.7h25.9c-6.8 18-24.9 30.4-45.3 30.4-26.1 0-48.3-20.4-48.3-46.5 0-26 22.2-46.5 48.3-46.5 26 0 48.2 20.5 48.2 46.5 0 2.9-0.4 5.7-0.9 8.4zm47.6-15.9c-3.1-10.5-12.8-18.2-23.9-18.2-11.1 0-20.8 7.7-23.8 18.2z"/>
				<path id="&lt;Compound Path&gt;" fill-rule="evenodd" class="s1" d="m1068.3 620h-51.6v-115.9h49.1c21.1 0 33.9 12.1 33.9 32.2 0 8.5-3.3 15.5-10.4 20.3 10.9 4.8 16.7 14.7 16.7 27.3 0 21.1-14 36.1-37.7 36.1zm-27.4-71.7h21.8c7.7 0 12.8-4 12.8-11.1 0-7.2-5.1-11.1-12.8-11.1h-21.8zm25.2 22h-25.2v27.8h24.7c9.2 0 16.2-4 16.2-14.2 0-10-6.8-13.6-15.7-13.6z"/>
				<path id="&lt;Compound Path&gt;" class="s1" d="m1122.9 581v-47.9h23.1v45.8c0 13.1 7.9 23.4 21.2 23.4 13.2 0 21.1-10.3 21.1-23.4v-45.8h23.1v47.9c0 22.8-16.5 42-44.2 42-27.8 0-44.3-19.2-44.3-42z"/>
				<path id="&lt;Compound Path&gt;" class="s1" d="m1252.3 592.6c0.7 5.4 5.5 9.7 11.6 9.7 7.2 0 11.8-4 11.8-8.7 0-4.5-5.1-7.4-11.3-8.5-18.4-3.3-33.5-11.3-33.5-26.8 0-16.5 14.5-28.3 33-28.3 17.9 0 31 11.9 32.6 29.3h-22.2c-0.3-5.3-4.4-8.5-10.4-8.5-5.3 0-10.2 2.7-10.2 7.3 0 7.4 12.9 9.4 21.6 11.3 12.1 2.4 23.2 10.7 23.2 23.5 0 17.2-13.6 30.1-34.6 30.1-19.7 0-33.2-12.9-34.6-30.4z"/>
				<path id="&lt;Compound Path&gt;" class="s1" d="m1339.7 578.1c0 16.7 8.6 24.2 23 24.2v20.7h-2.5c-29.3 0-43.6-16.1-43.6-41v-77.9h23.1v29h23v19.9h-23z"/>
				<path id="&lt;Compound Path&gt;" fill-rule="evenodd" class="s1" d="m1399.5 584.9c3.4 10 13 17.4 23.7 17.4 7.7 0 14.8-3.8 19.4-9.7h25.9c-6.8 18-24.8 30.4-45.3 30.4-26 0-48.2-20.4-48.2-46.5 0-26 22.2-46.5 48.2-46.5 26.1 0 48.2 20.5 48.2 46.5 0 2.9-0.3 5.7-0.8 8.4zm47.5-15.9c-3-10.5-12.8-18.2-23.8-18.2-11.1 0-20.8 7.7-23.9 18.2z"/>
				<path id="&lt;Compound Path&gt;" class="s1" d="m1534.8 530v20.8c-13.8 0-23.2 9.4-23.2 22v47.2h-23.1v-49.3c0-23.8 15.6-40.7 42.9-40.7z"/>
				<path id="&lt;Compound Path&gt;" class="s1" d="m1568.2 592.6c0.7 5.4 5.5 9.7 11.6 9.7 7.1 0 11.7-4 11.7-8.7 0-4.5-5.1-7.4-11.2-8.5-18.4-3.3-33.6-11.3-33.6-26.8 0-16.5 14.5-28.3 33.1-28.3 17.9 0 31 11.9 32.5 29.3h-22.1c-0.4-5.3-4.4-8.5-10.4-8.5-5.3 0-10.2 2.7-10.2 7.3 0 7.4 12.9 9.4 21.6 11.3 12.1 2.4 23.2 10.7 23.2 23.5 0 17.2-13.7 30.1-34.6 30.1-19.8 0-33.2-12.9-34.6-30.4z"/>
			</g>
		</g>
	</g>
</svg>